#!OML:ASF I:\golf\golf\golf 2\Subject 1\2002-09-07\Subject1.ASF
:FULLY-SPECIFIED
:DEGREES
283
root -6.01441 18.0696 -2.15051 -173.641 25.8382 -177.169
lowerback -6.22393 9.49954 16.7075
upperback -6.84884 15.7408 11.6813
thorax -3.65257 8.68195 4.0581
lowerneck -4.93161 -17.7364 -0.864241
upperneck 21.4273 -28.0928 -1.68613
head 7.35715 -14.6832 -2.64639
rclavicle 3.18055e-015 9.22361e-014
rhumerus 58.0209 45.1998 -71.7246
rradius 39.0799
rwrist -0.735341
rhand -3.75954 5.20832
rfingers 7.12502
rthumb 21.9848 -23.5623
lclavicle 3.18055e-015 9.22361e-014
lhumerus 24.1934 -10.5682 83.2907
lradius 51.1944
lwrist 49.3983
lhand -21.1609 33.2729
lfingers 7.12502
lthumb -174.781 -116.811
rfemur 8.3635 -3.48509 10.1724
rtibia 27.7701
rfoot 8.45193 -32.7458
rtoes 24.3309
lfemur -17.4482 -10.1243 -17.9203
ltibia 20.6564
lfoot 1.83958 -38.0963
ltoes 20.2697
284
root -6.00346 18.0739 -2.21253 -173.328 24.5226 -177.14
lowerback -6.14113 9.76953 16.8458
upperback -7.41365 16.2662 11.1614
thorax -4.13516 8.89159 3.40398
lowerneck -5.07947 -18.0663 -0.667839
upperneck 20.6737 -28.2044 -1.59497
head 7.11555 -14.6652 -2.59154
rclavicle 1.03368e-013 1.11319e-013
rhumerus 61.2162 44.7357 -70.3677
rradius 39.6573
rwrist -0.115724
rhand -4.56014 6.31304
rfingers 7.12502
rthumb 21.216 -22.5459
lclavicle 1.03368e-013 1.11319e-013
lhumerus 26.1866 -9.19856 82.4923
lradius 52.704
lwrist 48.8907
lhand -21.7796 32.0658
lfingers 7.12502
lthumb -175.378 -118.005
rfemur 8.71298 -3.32968 10.6873
rtibia 27.3295
rfoot 8.28312 -33.6815
rtoes 26.218
lfemur -17.7978 -10.3902 -17.8805
ltibia 20.6622
lfoot 3.75079 -38.7503
ltoes 22.987
285
root -5.99287 18.078 -2.28212 -173.084 23.2405 -177.061
lowerback -6.01734 10.0204 17.0416
upperback -7.99028 16.7858 10.6433
thorax -4.63629 9.09306 2.7172
lowerneck -4.85434 -18.4799 -0.43922
upperneck 19.6705 -28.3843 -1.67158
head 6.70338 -14.7158 -2.51815
rclavicle 1.04958e-013 -2.22639e-014
rhumerus 64.4623 44.2452 -68.647
rradius 40.3145
rwrist 0.303389
rhand -5.60697 7.25128
rfingers 7.12502
rthumb 20.2101 -21.7174
lclavicle 1.04958e-013 -2.22639e-014
lhumerus 28.0402 -7.87784 81.7845
lradius 54.2323
lwrist 48.3327
lhand -22.2384 30.9317
lfingers 7.12502
lthumb -175.821 -119.13
rfemur 9.188 -3.19432 11.2139
rtibia 26.8323
rfoot 8.61822 -34.1899
rtoes 26.1609
lfemur -18.0145 -10.6076 -17.8304
ltibia 20.6948
lfoot 4.84548 -39.5167
ltoes 24.0572
286
root -5.98537 18.0827 -2.35049 -172.794 21.9676 -177.02
lowerback -6.03675 10.2241 17.2155
upperback -8.48229 17.1836 10.1588
thorax -4.97609 9.24581 2.11525
lowerneck -4.83667 -18.7722 -0.247055
upperneck 18.8003 -28.4203 -1.73469
head 6.37805 -14.6896 -2.46619
rclavicle 2.54444e-014 1.94014e-013
rhumerus 68.055 43.8048 -66.4985
rradius 41.0667
rwrist 0.505228
rhand -6.82604 7.73634
rfingers 7.12502
rthumb 19.0381 -21.3519
lclavicle 2.54444e-014 1.94014e-013
lhumerus 29.9321 -6.4287 81.0926
lradius 55.7212
lwrist 47.423
lhand -22.7643 29.7189
lfingers 7.12502
lthumb -176.329 -120.333
rfemur 9.60763 -3.12841 11.6998
rtibia 26.2563
rfoot 9.43571 -34.6821
rtoes 26.1264
lfemur -18.3339 -10.8219 -17.8099
ltibia 20.7892
lfoot 5.14594 -40.3782
ltoes 23.6313
287
root -5.9773 18.0877 -2.4146 -172.342 20.5892 -176.829
lowerback -6.09818 10.3911 17.5674
upperback -8.98227 17.5261 9.65264
thorax -5.25653 9.36603 1.42159
lowerneck -5.55898 -18.7149 -0.457671
upperneck 18.8274 -28.2505 -1.25253
head 6.60289 -14.5159 -2.40779
rclavicle 1.90833e-014 -7.31528e-014
rhumerus 71.3888 43.1746 -65.0007
rradius 41.5792
rwrist 0.783397
rhand -7.80151 8.56494
rfingers 7.12502
rthumb 18.0998 -20.6129
lclavicle 1.90833e-014 -7.31528e-014
lhumerus 32.007 -4.9967 80.4244
lradius 57.0383
lwrist 46.0476
lhand -23.208 28.5426
lfingers 7.12502
lthumb -176.758 -121.502
rfemur 9.92635 -3.15795 12.4002
rtibia 25.6198
rfoot 9.82081 -35.403
rtoes 26.6749
lfemur -18.8299 -11.0234 -17.578
ltibia 20.9317
lfoot 7.15555 -40.8315
ltoes 26.7022
288
root -5.96563 18.0917 -2.47983 -171.849 19.1577 -176.725
lowerback -6.22128 10.5587 17.8258
upperback -9.542 17.8709 9.08151
thorax -5.56547 9.48744 0.713713
lowerneck -6.06658 -18.8277 -0.624795
upperneck 18.5073 -28.1674 -1.06542
head 6.62829 -14.4107 -2.37146
rclavicle -9.85972e-014 1.27222e-014
rhumerus 74.2249 42.3876 -63.9954
rradius 42.0203
rwrist 0.862479
rhand -8.58557 10.0857
rfingers 7.12502
rthumb 17.3453 -19.1603
lclavicle -9.85972e-014 1.27222e-014
lhumerus 34.1145 -3.83515 79.8534
lradius 58.0538
lwrist 44.0282
lhand -23.5483 26.9349
lfingers 7.12502
lthumb -177.086 -123.105
rfemur 10.1827 -3.27306 13.0376
rtibia 24.9706
rfoot 9.77444 -36.2456
rtoes 27.4583
lfemur -19.4314 -11.157 -17.4219
ltibia 21.1107
lfoot 9.63082 -41.3376
ltoes 30.0781
289
root -5.95238 18.0934 -2.5468 -171.393 17.7686 -176.744
lowerback -6.46021 10.7072 17.9015
upperback -10.0742 18.1573 8.51992
thorax -5.82238 9.59601 0.125303
lowerneck -6.53164 -18.9405 -0.827014
upperneck 18.1077 -28.0457 -0.957451
head 6.61323 -14.2973 -2.33642
rclavicle -1.38354e-013 -8.5875e-014
rhumerus 77.0424 41.5947 -62.748
rradius 42.6461
rwrist 0.489989
rhand -9.3739 11.3721
rfingers 7.12502
rthumb 16.5865 -17.9391
lclavicle -1.38354e-013 -8.5875e-014
lhumerus 36.1924 -2.33219 79.6196
lradius 59.4114
lwrist 42.7303
lhand -22.9109 26.606
lfingers 7.12502
lthumb -176.471 -123.443
rfemur 10.4675 -3.47918 13.5106
rtibia 24.273
rfoot 9.81924 -37.0699
rtoes 28.4355
lfemur -20.0434 -11.3262 -17.4026
ltibia 21.3351
lfoot 11.1006 -42.2229
ltoes 30.999
290
root -5.93782 18.0922 -2.61458 -171.025 16.3969 -176.698
lowerback -6.68019 10.7523 17.9654
upperback -10.4862 18.2956 8.09879
thorax -6.01499 9.6464 -0.320126
lowerneck -6.61966 -19.0873 -0.864684
upperneck 17.4967 -27.9645 -1.02938
head 6.42031 -14.2338 -2.2997
rclavicle 1.27222e-014 8.26944e-014
rhumerus 80.2788 40.9476 -61.2431
rradius 43.2359
rwrist 0.0516136
rhand -10.1654 12.2244
rfingers 7.12502
rthumb 15.8244 -17.1489
lclavicle 1.27222e-014 8.26944e-014
lhumerus 38.2653 -0.632927 79.4488
lradius 60.707
lwrist 41.2935
lhand -22.6518 26.2169
lfingers 7.12502
lthumb -176.221 -123.837
rfemur 10.9363 -3.59592 14.08
rtibia 23.4662
rfoot 9.52871 -37.9274
rtoes 29.8367
lfemur -20.5427 -11.6067 -17.2996
ltibia 21.59
lfoot 12.7562 -42.9895
ltoes 32.436
